<?xml version="1.0" encoding="UTF-8"?>
<svg xmlns:xodm="http://www.corel.com/coreldraw/odm/2003" xmlns="http://www.w3.org/2000/svg" xmlns:xlink="http://www.w3.org/1999/xlink" version="1.1" id="Layer_1" x="0px" y="0px" viewBox="0 0 2500 662" style="enable-background:new 0 0 2500 662;" xml:space="preserve">
<g id="Layer_x0020_1">
	<g id="_2018709717792">
		<polygon points="923.5,226.7 836,226.7 836,435.3 880.5,435.3 880.5,272.4 893.9,272.4 965.3,435.3 1015.1,435.3   "></polygon>
		<polygon points="1712.4,435.3 1758.2,435.3 1758.2,226.7 1712.4,226.7   "></polygon>
		<polygon points="1108,226.7 1015.1,435.3 1064.9,435.3 1137.6,272.4 1149.7,272.4 1149.7,435.3 1195.5,435.3 1195.5,226.7   "></polygon>
		<path d="M1397.4,226.7h-82.1l-91.5,208.7h49.8l29.6-68.7h107.7l29.6,68.7h49.8l-91.5-208.7H1397.4z M1322,322.2l21.5-49.8h24.2    l21.5,49.8h-68.7H1322z"></path>
		<polygon points="1619.5,226.7 1515.9,226.7 1515.9,435.3 1561.7,435.3 1561.7,272.4 1591.3,272.4 1662.6,435.3 1712.4,435.3   "></polygon>
		<polygon points="1782.4,226.7 1782.4,272.4 1888.8,272.4 1888.8,435.3 1933.2,435.3 1933.2,272.4 2039.6,272.4 2039.6,226.7   "></polygon>
		<polygon points="2109.6,226.7 2063.8,226.7 2063.8,435.3 2260.4,435.3 2260.4,390.9 2109.6,390.9   "></polygon>
		<polygon points="2500,272.4 2500,226.7 2285.9,226.7 2285.9,435.3 2500,435.3 2500,390.9 2331.7,390.9 2331.7,350.5 2477.1,350.5     2477.1,306.1 2331.7,306.1 2331.7,272.4   "></polygon>
		<path d="M136,232.1L35,180.9c-8.1,14.8-14.8,31-20.2,48.5l107.7,35c4-10.8,8.1-21.5,13.5-31l0,0V232.1z"></path>
		<path d="M220.8,141.9l55.2,95.6c8.1-5.4,16.2-8.1,25.6-10.8l-28.3-106.4c6.7-1.3,14.8-4,22.9-5.4L278.7,3.2    c-17.5,2.7-33.7,6.7-51.2,12.1l35,105c-10.8,4-21.5,8.1-32.3,13.5l-51.2-98.3c-14.8,8.1-29.6,17.5-44.4,26.9l66,91.5    c6.7-4,12.1-8.1,18.8-12.1l0,0H220.8z"></path>
		<path d="M519.7,221.3l-95.6,55.2c5.4,8.1,8.1,16.2,10.8,25.6l106.4-28.3c1.3,6.7,4,14.8,5.4,22.9l111.7-17.5    c-2.7-17.5-6.7-33.7-12.1-51.2l-105,35c-4-10.8-8.1-21.5-13.5-32.3l98.3-51.2c-8.1-14.8-17.5-29.6-26.9-44.4l-91.5,66    c4,6.7,8.1,12.1,12.1,18.8l0,0V221.3z"></path>
		<path d="M480.6,36.8c-14.8-8.1-31-14.8-48.5-20.2l-35,107.7c10.8,4,21.5,8.1,31,13.5l51.2-101l0,0H480.6z"></path>
		<path d="M440.2,140.5l-56.5,96.9c8.1,4,16.2,10.8,22.9,17.5L564.1,97.4c-12.1-12.1-25.6-22.9-39-33.7L460.4,154    c-6.7-4-12.1-8.1-18.8-12.1l0,0L440.2,140.5z"></path>
		<path d="M140,221.3l96.9,56.5c4-8.1,10.8-16.2,17.5-22.9L96.9,97.4c-12.1,12.1-22.9,25.6-33.7,39l90.2,64.6    c-4,6.7-8.1,12.1-12.1,18.8L140,221.3z"></path>
		<path d="M364.8,113.6l17.5-109c-16.2-2.7-33.7-4-51.2-4l0,0V224l0,0c9.4,0,18.8,1.3,28.3,4l28.3-109c-6.7-1.3-14.8-4-22.9-4V113.6    z"></path>
		<path d="M227.5,303.4l-109-29.6c-1.3,6.7-4,14.8-5.4,22.9L4,279.2c-2.7,17.5-4,33.7-4,51.2h223.5c0-9.4,1.3-18.8,4-28.3l0,0V303.4    z"></path>
		<path d="M525,429.9l101,51.2c8.1-14.8,14.8-31,20.2-48.5l-107.7-35c-4,10.8-8.1,21.5-13.5,31l0,0V429.9z"></path>
		<path d="M440.2,520.1L385,424.6c-8.1,5.4-16.2,8.1-25.6,10.8l28.3,106.4c-6.7,1.3-14.8,4-22.9,5.4l17.5,111.7    c17.5-2.7,33.7-6.7,51.2-12.1l-35-105c10.8-4,21.5-8.1,32.3-13.5l51.2,98.3c14.8-8.1,29.6-17.5,44.4-26.9l-66-91.5    c-6.7,4-12.1,8.1-18.8,12.1H440.2z"></path>
		<path d="M142.7,440.7l95.6-55.2c-5.4-8.1-8.1-16.2-10.8-25.6l-106.4,28.3c-1.3-6.7-4-14.8-5.4-22.9L4,382.8    c2.7,17.5,6.7,33.7,12.1,51.2l105-35c4,10.8,8.1,21.5,13.5,32.3l-98.3,51.2c8.1,14.8,17.5,29.6,26.9,44.4l91.5-66    c-4-6.7-8.1-12.1-12.1-18.8l0,0V440.7z"></path>
		<path d="M181.7,626.5c14.8,8.1,31,14.8,48.5,20.2l35-107.7c-10.8-4-21.5-8.1-31-13.5l-51.2,101l0,0H181.7z"></path>
		<path d="M220.8,521.5l56.5-96.9c-8.1-4-16.2-10.8-22.9-17.5L96.9,564.6c12.1,12.1,25.6,22.9,39,33.7l64.6-90.2    c6.7,4,12.1,8.1,18.8,12.1l0,0L220.8,521.5z"></path>
		<path d="M521,440.7l-96.9-56.5c-4,8.1-10.8,16.2-17.5,22.9l157.5,157.5c12.1-12.1,22.9-25.6,33.7-39l-90.2-64.6    c4-6.7,8.1-12.1,12.1-18.8l0,0L521,440.7z"></path>
		<path d="M302.9,435.3l-28.3,109c6.7,1.3,14.8,4,22.9,4l-17.5,109c16.2,2.7,33.7,4,51.2,4l0,0V438l0,0c-9.4,0-18.8-1.3-28.3-4l0,0    V435.3z"></path>
		<path d="M438.9,331.7c0,9.4-1.3,18.8-4,28.3l109,29.6c1.3-6.7,4-14.8,4-22.9l109,17.5c2.7-17.5,4-33.7,4-51.2H437.5l0,0    L438.9,331.7z"></path>
	</g>
</g>
</svg>
